<svg width="35" height="35" viewBox="0 0 35 35" fill="none" xmlns="http://www.w3.org/2000/svg">
<g clip-path="url(#clip0_1_224)">
<path d="M29.6299 6.55149C27.3987 5.54524 25.007 4.80149 22.5059 4.37857C22.4837 4.37429 22.4606 4.37705 22.44 4.38646C22.4193 4.39586 22.4021 4.41145 22.3907 4.43107C22.0845 4.96919 21.7432 5.67065 21.5041 6.22482C18.8515 5.8285 16.1548 5.8285 13.5022 6.22482C13.2358 5.61066 12.9354 5.01181 12.6024 4.43107C12.5911 4.41121 12.574 4.39527 12.5535 4.38537C12.5329 4.37546 12.5098 4.37208 12.4872 4.37565C9.98761 4.79857 7.59594 5.54232 5.36324 6.55003C5.34403 6.55808 5.32774 6.57182 5.31657 6.5894C0.778237 13.2613 -0.465722 19.7684 0.14532 26.1938C0.14702 26.2095 0.151905 26.2247 0.159677 26.2385C0.167449 26.2523 0.177946 26.2644 0.190528 26.274C2.83943 28.2025 5.79394 29.6716 8.93032 30.6198C8.95218 30.6266 8.97557 30.6265 8.99742 30.6198C9.01928 30.613 9.03858 30.5998 9.05282 30.5819C9.72773 29.6793 10.3258 28.7217 10.8407 27.7192C10.8479 27.7055 10.852 27.6904 10.8528 27.675C10.8536 27.6595 10.8511 27.6441 10.8454 27.6297C10.8398 27.6153 10.8311 27.6023 10.82 27.5916C10.8088 27.5809 10.7955 27.5727 10.7809 27.5675C9.83887 27.2128 8.92607 26.7846 8.05094 26.2871C8.03522 26.2781 8.02197 26.2654 8.01238 26.25C8.00279 26.2347 7.99717 26.2172 7.99601 26.1991C7.99486 26.181 7.99821 26.163 8.00576 26.1465C8.01331 26.1301 8.02483 26.1157 8.03928 26.1048C8.22303 25.9692 8.40678 25.8277 8.58178 25.6863C8.59753 25.6736 8.6165 25.6655 8.63659 25.6629C8.65667 25.6603 8.67708 25.6634 8.69553 25.6717C14.4224 28.2442 20.6247 28.2442 26.2845 25.6717C26.303 25.6629 26.3236 25.6594 26.344 25.6617C26.3643 25.6641 26.3836 25.6721 26.3997 25.6848C26.5747 25.8277 26.757 25.9692 26.9422 26.1048C26.9568 26.1155 26.9685 26.1296 26.9763 26.1459C26.9841 26.1623 26.9877 26.1803 26.9868 26.1983C26.986 26.2164 26.9806 26.2339 26.9713 26.2494C26.962 26.2649 26.949 26.2779 26.9334 26.2871C26.0614 26.7888 25.1543 27.2132 24.202 27.5661C24.1874 27.5714 24.174 27.5797 24.1629 27.5906C24.1518 27.6015 24.1431 27.6146 24.1374 27.6291C24.1318 27.6436 24.1293 27.6591 24.1301 27.6747C24.1309 27.6902 24.135 27.7054 24.1422 27.7192C24.6672 28.7211 25.268 29.6748 25.9287 30.5804C25.9424 30.599 25.9615 30.6129 25.9834 30.6202C26.0054 30.6275 26.029 30.6279 26.0512 30.6213C29.1929 29.6758 32.1522 28.206 34.8041 26.274C34.817 26.2649 34.8279 26.2532 34.8359 26.2397C34.844 26.2261 34.849 26.2109 34.8507 26.1952C35.5799 18.7665 33.6287 12.3119 29.6751 6.59232C29.6654 6.57373 29.6494 6.55924 29.6299 6.55149ZM11.6968 22.2811C9.97303 22.2811 8.55115 20.7221 8.55115 18.8102C8.55115 16.8969 9.94532 15.3394 11.6968 15.3394C13.4614 15.3394 14.8701 16.91 14.8424 18.8102C14.8424 20.7236 13.4482 22.2811 11.6968 22.2811ZM23.327 22.2811C21.6018 22.2811 20.1814 20.7221 20.1814 18.8102C20.1814 16.8969 21.5741 15.3394 23.327 15.3394C25.0916 15.3394 26.5003 16.91 26.4726 18.8102C26.4726 20.7236 25.093 22.2811 23.327 22.2811Z" fill="black"/>
</g>
<defs>
<clipPath id="clip0_1_224">
<rect width="35" height="35" fill="white" transform="translate(0.000244141 0.000732422)"/>
</clipPath>
</defs>
</svg>
