<svg width="19" height="15" viewBox="0 0 19 15" fill="none" xmlns="http://www.w3.org/2000/svg">
<path d="M16.4327 3.76646C17.1093 3.27316 17.7182 2.6812 18.1919 1.99059C17.5829 2.25368 16.8725 2.451 16.162 2.51677C16.9063 2.08925 17.4476 1.43152 17.7182 0.609356C17.0416 1.00399 16.2635 1.29997 15.4854 1.4644C14.8088 0.773788 13.8954 0.37915 12.8805 0.37915C10.9183 0.37915 9.32831 1.92481 9.32831 3.83223C9.32831 4.09532 9.36214 4.35841 9.4298 4.62151C6.48655 4.45707 3.84778 3.07584 2.0886 1.00399C1.78413 1.49729 1.61498 2.08925 1.61498 2.74698C1.61498 3.93089 2.22393 4.98326 3.20501 5.6081C2.62989 5.57521 2.05477 5.44367 1.58115 5.18058V5.21346C1.58115 6.89067 2.79904 8.27191 4.4229 8.60077C4.15226 8.66654 3.81395 8.73232 3.50948 8.73232C3.27267 8.73232 3.06969 8.69943 2.83287 8.66654C3.27267 10.0478 4.59205 11.0344 6.14825 11.0673C4.93036 11.9881 3.40799 12.5471 1.7503 12.5471C1.44583 12.5471 1.17518 12.5143 0.904541 12.4814C2.46074 13.468 4.32141 14.027 6.35123 14.027C12.8805 14.027 16.4327 8.79809 16.4327 4.22687C16.4327 4.06244 16.4327 3.93089 16.4327 3.76646Z" fill="black"/>
</svg>
