<svg width="18" height="16" viewBox="0 0 18 16" fill="none" xmlns="http://www.w3.org/2000/svg">
<path d="M4.11 15.027V5.28925H0.521335V15.027H4.11ZM2.29637 3.98655C3.45401 3.98655 4.38011 3.17236 4.38011 2.19532C4.38011 1.25086 3.45401 0.469238 2.29637 0.469238C1.17733 0.469238 0.251221 1.25086 0.251221 2.19532C0.251221 3.17236 1.17733 3.98655 2.29637 3.98655ZM17.5 15.027H17.5385V9.68589C17.5385 7.08048 16.844 5.06128 13.2167 5.06128C11.4803 5.06128 10.3226 5.87547 9.82099 6.62453H9.7824V5.28925H6.34809V15.027H9.93675V10.207C9.93675 8.93683 10.2069 7.73183 12.0591 7.73183C13.9113 7.73183 13.9499 9.16481 13.9499 10.3047V15.027H17.5Z" fill="black"/>
</svg>
