<svg width="44" height="54" viewBox="0 0 44 54" fill="none" xmlns="http://www.w3.org/2000/svg">
<path d="M23.7396 7.49142C23.6836 7.07225 23.5826 6.65224 23.4305 6.23383L25.0523 7.52626C28.9823 10.6605 28.9532 16.4436 24.997 20.4411C24.997 20.4412 24.9969 20.4412 24.9969 20.4412L7.27517 38.3438C4.43684 35.7406 4.57364 31.2755 7.66669 28.1527L7.66735 28.1521C9.06871 26.7328 10.4837 25.3062 11.8438 23.9385L11.8447 23.9375L19.2838 16.4237L19.2893 16.4189C19.3067 16.404 19.3322 16.3819 19.3651 16.353C19.4306 16.2952 19.5246 16.2109 19.641 16.1022C19.8734 15.885 20.1954 15.5699 20.558 15.174C21.281 14.3848 22.1771 13.2617 22.8426 11.9425C23.5089 10.6218 23.9529 9.08642 23.7396 7.49142ZM19.27 16.4355C19.2688 16.4366 19.2685 16.4369 19.2707 16.4349L19.27 16.4355Z" fill="#F1684C" stroke="black" stroke-width="0.991896"/>
<path opacity="0.49" d="M7.56289 27.8501L7.56298 27.85C9.27444 26.1498 11.0032 24.4328 12.6223 22.8247C13.7879 21.6671 14.8966 20.5659 15.9013 19.5679C15.844 19.711 15.7897 19.8567 15.7391 20.0048C15.3408 21.1701 15.1639 22.4945 15.5133 23.8562C15.835 25.1103 16.5956 26.367 17.9852 27.5461L7.41906 38.045C4.41163 35.3999 4.46217 30.929 7.56289 27.8501Z" fill="url(#paint0_linear_1_62)" stroke="black" stroke-width="0.991896"/>
<path opacity="0.77" d="M7.54875 27.7067L7.54942 27.706C8.55307 26.7042 9.56354 25.699 10.5544 24.7133C10.7745 24.4943 10.9937 24.2763 11.2116 24.0595C12.6711 26.9279 12.2754 29.781 11.2789 32.1824C10.2157 34.7449 8.4727 36.7764 7.59227 37.7008L7.40385 37.8882C4.40767 35.2466 4.4579 30.7818 7.54875 27.7067Z" fill="url(#paint1_linear_1_62)" stroke="black" stroke-width="0.991896"/>
<path d="M32.7807 17.8183C32.7246 17.3991 32.6236 16.9791 32.4715 16.5607L34.0933 17.8532C38.0233 20.9874 37.9942 26.7705 34.038 30.7681C34.038 30.7681 34.038 30.7681 34.0379 30.7681L16.3162 48.6707C13.4779 46.0675 13.6147 41.6025 16.7077 38.4797L16.7084 38.479C18.1097 37.0597 19.5247 35.6331 20.8848 34.2654L20.8857 34.2644L28.3248 26.7506L28.3303 26.7458C28.3477 26.7309 28.3733 26.7088 28.4061 26.6799C28.4717 26.6221 28.5657 26.5378 28.682 26.4291C28.9144 26.2119 29.2364 25.8969 29.599 25.5009C30.322 24.7117 31.2181 23.5886 31.8836 22.2694C32.55 20.9487 32.9939 19.4133 32.7807 17.8183ZM28.311 26.7624C28.3098 26.7635 28.3095 26.7638 28.3117 26.7618L28.311 26.7624Z" fill="black" stroke="black" stroke-width="0.991896"/>
<path opacity="0.49" d="M16.6039 38.177L16.604 38.1769C18.3155 36.4767 20.0442 34.7597 21.6634 33.1516C22.8289 31.994 23.9376 30.8928 24.9423 29.8948C24.885 30.0379 24.8307 30.1836 24.7801 30.3317C24.3818 31.497 24.205 32.8214 24.5543 34.1831C24.876 35.4372 25.6366 36.6939 27.0263 37.873L16.4601 48.3719C13.4526 45.7268 13.5032 41.2559 16.6039 38.177Z" fill="url(#paint2_linear_1_62)" stroke="black" stroke-width="0.991896"/>
<path opacity="0.77" d="M16.589 38.0335L16.5897 38.0328C17.5934 37.031 18.6038 36.0258 19.5947 35.0401C19.8148 34.8211 20.0339 34.6031 20.2518 34.3863C21.7114 37.2547 21.3156 40.1078 20.3192 42.5092C19.256 45.0717 17.513 47.1032 16.6326 48.0276L16.4441 48.215C13.448 45.5734 13.4982 41.1086 16.589 38.0335Z" fill="url(#paint3_linear_1_62)" stroke="black" stroke-width="0.991896"/>
<defs>
<linearGradient id="paint0_linear_1_62" x1="22.071" y1="18.4712" x2="6.75276" y2="38.2075" gradientUnits="userSpaceOnUse">
<stop stop-color="white"/>
<stop offset="1" stop-color="white" stop-opacity="0"/>
</linearGradient>
<linearGradient id="paint1_linear_1_62" x1="14.5756" y1="25.7402" x2="5.65646" y2="37.2093" gradientUnits="userSpaceOnUse">
<stop/>
<stop offset="1" stop-opacity="0"/>
</linearGradient>
<linearGradient id="paint2_linear_1_62" x1="31.112" y1="28.7981" x2="15.7938" y2="48.5344" gradientUnits="userSpaceOnUse">
<stop stop-color="white"/>
<stop offset="1" stop-color="white" stop-opacity="0"/>
</linearGradient>
<linearGradient id="paint3_linear_1_62" x1="23.6159" y1="36.067" x2="14.6967" y2="47.5361" gradientUnits="userSpaceOnUse">
<stop/>
<stop offset="1" stop-opacity="0"/>
</linearGradient>
</defs>
</svg>
